inDegrees=no
num_controls=7
num_derivatives=13
num_iterations=107
num_multipliers=7
num_parameters=0
num_slacks=7
num_states=26
objective=0.431155
objective_accelerations=0.050018
objective_balance=0.006788
objective_effort=0.031195
objective_height=0.341982
objective_ligament=0.001171
solver_duration=1493.332839
status=Solve_Succeeded
success=true
DataType=double
version=3
OpenSimVersion=4.5
endheader
time	/jointset/ground_pelvis/pelvis_tilt/value	/jointset/ground_pelvis/pelvis_tx/value	/jointset/ground_pelvis/pelvis_ty/value	/jointset/hip_l/hip_flexion_l/value	/jointset/hip_l/hip_adduction_l/value	/jointset/hip_l/hip_rotation_l/value	/jointset/back/lumbar_extension/value	/jointset/patellofemoral_l/patellar_flexion_l/value	/jointset/knee_l/knee_flexion_l/value	/jointset/knee_l/knee_adduction_l/value	/jointset/knee_l/knee_rotation_l/value	/jointset/ankle_l/ankle_angle_l/value	/jointset/subtalar_l/subtalar_angle_l/value	/jointset/ground_pelvis/pelvis_tilt/speed	/jointset/ground_pelvis/pelvis_tx/speed	/jointset/ground_pelvis/pelvis_ty/speed	/jointset/hip_l/hip_flexion_l/speed	/jointset/hip_l/hip_adduction_l/speed	/jointset/hip_l/hip_rotation_l/speed	/jointset/back/lumbar_extension/speed	/jointset/patellofemoral_l/patellar_flexion_l/speed	/jointset/knee_l/knee_flexion_l/speed	/jointset/knee_l/knee_adduction_l/speed	/jointset/knee_l/knee_rotation_l/speed	/jointset/ankle_l/ankle_angle_l/speed	/jointset/subtalar_l/subtalar_angle_l/speed	/forceset/tau_hip_flexion_l	/forceset/tau_hip_adduction_l	/forceset/tau_hip_rotation_l	/forceset/tau_knee_flexion_l	/forceset/tau_ankle_angle_l	/forceset/tau_subtalar_angle_l	/forceset/tau_lumbar_extension	lambda_cid13_p0	lambda_cid13_p1	lambda_cid13_p2	lambda_cid13_p3	lambda_cid13_p4	lambda_cid13_p5	lambda_cid14_p0	/jointset/ground_pelvis/pelvis_tilt/accel	/jointset/ground_pelvis/pelvis_tx/accel	/jointset/ground_pelvis/pelvis_ty/accel	/jointset/hip_l/hip_flexion_l/accel	/jointset/hip_l/hip_adduction_l/accel	/jointset/hip_l/hip_rotation_l/accel	/jointset/back/lumbar_extension/accel	/jointset/patellofemoral_l/patellar_flexion_l/accel	/jointset/knee_l/knee_flexion_l/accel	/jointset/knee_l/knee_adduction_l/accel	/jointset/knee_l/knee_rotation_l/accel	/jointset/ankle_l/ankle_angle_l/accel	/jointset/subtalar_l/subtalar_angle_l/accel	gamma_cid13_p0	gamma_cid13_p1	gamma_cid13_p2	gamma_cid13_p3	gamma_cid13_p4	gamma_cid13_p5	gamma_cid14_p0
1.5	-0.3356739415529189	-0.03037493736839144	0.7655229424913175	1.170287064337107	-0.3050906967647287	0.00999287200534788	-0.3379475389023509	0.8174286156047417	0.8174286156047984	-0.1729890178812943	0.1679719892790356	0.1643209809447211	-0.01944851936348729	0.4257084052422142	0.1572113076401395	0.504469479648636	-2.095409257608586	-0.01239409335018798	-0.6994728487959084	0.5796242889422452	-2.094144669999854	-2.094144670000187	0.006433136531934154	-0.04027998981767919	-0.5478630716067908	-0.1041202336373158	-0.192165539431119	0.03031351725523682	-0.02598211099368544	-0.2548789466511442	0.09947328642014217	0.02981805322190513	0.1910573979676786	-6.460105139676442	-14.13977785887428	4.502891429675604	-2.098074800280594	-606.4104402769736	-50.39171111058089	-20.47744291971922	0.4990525340417599	0.5409429493819355	-0.4193230191107992	-1.303901275698601	0.6744133789421198	-0.360902027191414	1.596411277349062	-1.335516048561115	-1.335516048561133	0.03992058117664131	-0.08257127897291222	-0.5533775568927315	0.6967114923924752	4.213619146768308e-07	4.929455709789518e-07	-2.579303399871471e-06	-2.819393108541022e-07	5.10695166257957e-07	2.969409653400077e-07	4.08043467187068e-07
1.51	-0.3313920677069384	-0.0287759722039592	0.7705456085933743	1.149270035693992	-0.3051820457670452	0.002983107162229681	-0.3320730348635547	0.7964227916955277	0.7964227916956256	-0.172926676667766	0.1675649545677421	0.1588150200932731	-0.02045637573883231	0.4306033698542561	0.162556488576912	0.499953766846774	-2.107675801982689	-0.005854655056183661	-0.7023906497449655	0.5951660854266216	-2.106700150543692	-2.106700150543902	0.006034183765345824	-0.04111910660678904	-0.5532363946782404	-0.09743299151924022	-0.1857085393954024	0.02979509464939613	-0.02585977784426529	-0.2520725043576472	0.1011296265948562	0.02951946344922025	0.1856110096054251	-5.694945224754295	-14.25320998006267	4.645633836282449	-2.282827181226363	-601.8675446475778	-50.58963987458073	-21.75617320680979	0.4753101321649877	0.5274617106595306	-0.4840769274919174	-1.139875755591272	0.6472155364731579	-0.2433917475378346	1.516498825359368	-1.167659322993293	-1.167659322974703	-0.07995066067786774	-0.08286052256346173	-0.515413247261115	0.6576573516904783	4.546467109366537e-07	6.004532734936616e-07	-2.699313783179656e-06	-2.887604475138937e-07	5.517193533607746e-07	3.95400023603535e-07	4.339544911091459e-07
1.52	-0.3270631258733646	-0.02712432402119239	0.7755198412640588	1.128139972659668	-0.3052072990900533	-0.004053070214134336	-0.3260464258616398	0.7753009939277385	0.775300993927875	-0.1728683544729246	0.167149872959816	0.1532581052981123	-0.02139677433696153	0.4351220027614889	0.1677479113070544	0.4947827933741851	-2.118016135849794	0.0008250425115648204	-0.7047553554450214	0.6100452815660995	-2.117339441715454	-2.11733944171554	0.005629332794706106	-0.04188936914323737	-0.5580538603492918	-0.0906286781941492	-0.1792515393596922	0.0292766720435515	-0.02573744469488348	-0.2492660620641481	0.1027859667695692	0.02922087367653101	0.1801646212431663	-4.933573581355299	-14.36869903934523	4.791813335273925	-2.489806547428914	-597.4074576593949	-50.87759758802292	-23.02929679123237	0.4237861930799077	0.5101913080559543	-0.5503751532561598	-0.9186591742987014	0.7024652336909489	-0.2502829773912268	1.463891208369285	-0.9522781741457933	-0.9522781741457916	0.03874094036634945	-0.06880042844060277	-0.442206076813053	0.7201257337955707	5.026746800042126e-07	6.812092057297861e-07	-2.904903460960015e-06	-3.100629830334694e-07	6.07200719942676e-07	4.96928462304917e-07	4.698886891118861e-07
1.53	-0.3226908290047253	-0.02542158411530929	0.7804391713963039	1.106915979201686	-0.3051653950592339	-0.01110974553052905	-0.3198745202931039	0.7540822595947645	0.7540822595948636	-0.1728148199467773	0.1667272656293101	0.1476557246434083	-0.02226893671665674	0.4392705210547218	0.1727686537924398	0.4889794722318361	-2.126450843062485	0.007570651267742002	-0.706496105018011	0.624216347197752	-2.126072008604992	-2.126072008604817	0.005085020921060131	-0.04261748978457067	-0.5623211947571655	-0.08379135756150852	-0.1728114855786944	0.02859224339948289	-0.02555050786667738	-0.2465355728377819	0.1044038787690017	0.02876503591818366	0.1747114745625025	-4.200838953734882	-14.40448312038823	4.917975406919055	-2.615218312339193	-593.1088926313842	-51.06512355610046	-24.29489138984961	0.400409972496705	0.4932300286222849	-0.6107315274689952	-0.7560491645394644	0.6632664558713456	-0.1229379755169017	1.375791498987553	-0.7835417875581726	-0.7835417875189745	-0.09993603332909212	-0.07196986863732813	-0.4038437581048213	0.6676732437199626	5.663672701799911e-07	7.335413820449142e-07	-3.201421139117056e-06	-3.467520048415657e-07	6.78042839721104e-07	6.017181177215195e-07	5.164725095753296e-07
1.54	-0.3182790418881459	-0.02366959392260396	0.7852973841305765	1.085617604137618	-0.305055503388995	-0.01818122174830529	-0.313564488616567	0.7327862404246592	0.7327862404247175	-0.1727665122957896	0.1662979466950509	0.1420137013175596	-0.02307229828688124	0.4430200523500301	0.1775979686715035	0.4825593137796906	-2.132892457066582	0.01442257039552845	-0.7077155357215621	0.6376705031663823	-2.132796409142543	-2.132796409142107	0.00458395776345504	-0.04323168989220966	-0.5659823945782503	-0.07686851630000145	-0.1663714317976976	0.02790781475541725	-0.02536357103855784	-0.2438050836114054	0.1060217907684358	0.02830919815984006	0.1692583278818369	-3.470041258447497	-14.44397107599073	5.049348416815441	-2.775416471007231	-588.8712818542467	-51.35671127428805	-25.5516749892398	0.3439887934949159	0.4719057867916385	-0.6737426152154254	-0.5200405325800461	0.7237273080128045	-0.1460192035035227	1.320509275764816	-0.5506449037482423	-0.5506449037483162	0.04739068357451161	-0.04601632170173572	-0.3209791594552067	0.7372298595688545	6.075482017541203e-07	8.380210622934439e-07	-3.367027138486334e-06	-3.596437604276247e-07	7.29066248371042e-07	7.139975508567794e-07	5.48399337686462e-07
1.55	-0.3138317407369047	-0.02187027859795988	0.7900884476084495	1.064264477660406	-0.3048768469681358	-0.02526220503351882	-0.3071236282198244	0.7114327359176068	0.7114327359175902	-0.1727234568079695	0.1658630015752793	0.1363380248464785	-0.02380631849186698	0.4463685208414493	0.1822320196797755	0.4755614819208295	-2.137411619018081	0.02130872138443893	-0.7083589206908004	0.6503763250249307	-2.137584270627044	-2.137584270626708	0.00399693870038735	-0.04377047746356082	-0.5690503107392598	-0.06993897797994297	-0.159892624383583	0.02687871519225512	-0.02513957662982807	-0.2415309088298153	0.1080731227623729	0.0276973368036756	0.1638037201974851	-2.629505957618019	-14.43117720981259	5.168117639858249	-2.977550469480093	-585.02239148749	-51.62899955711999	-26.79887804376498	0.3195841415949383	0.4541258620694577	-0.7264338692120167	-0.3695958791720778	0.6714519886945105	-0.004635345846469158	1.226830967233983	-0.3949378836293174	-0.3949378836443557	-0.1162809521730155	-0.05911681198364948	-0.2843077173258898	0.6705203391835542	6.2279178754809e-07	1.002583736204368e-06	-3.381800116643633e-06	-3.45116926670903e-07	7.572550550685906e-07	8.349065104939703e-07	5.634387615655846e-07
1.56	-0.309353093247826	-0.02002562854238833	0.7948068066881359	1.04287581119313	-0.3046292504385152	-0.03234584960886253	-0.3005594671392295	0.6900409365731524	0.6900409365730448	-0.1726871780609823	0.1654224072123456	0.1306347472392074	-0.0244711024094603	0.4492893199180523	0.1866649148569996	0.4680184341423388	-2.140000455079079	0.02821059214791875	-0.7082477937485333	0.6623306399368493	-2.14045537662468	-2.140455376624444	0.003228609600299691	-0.04436153852018443	-0.571502621816351	-0.06302125882151494	-0.153413816969455	0.02584961562911183	-0.02491558222132102	-0.2392567340481905	0.1101244547563186	0.02708547544753485	0.1583491125131403	-1.789130792289293	-14.42275270462352	5.292608662823401	-3.222335582897603	-581.2114866451587	-52.00815130497264	-28.03516079763828	0.2584549105315802	0.4316746205820949	-0.782785799141324	-0.133975354480106	0.7268712629266868	0.004883178797582217	1.170207886438789	-0.1672938063753749	-0.1672938063753902	0.0111286761705004	-0.0564710187562135	-0.1978581426714898	0.7348660272427704	5.360881549214851e-07	1.279385242128555e-06	-2.893374638152828e-06	-2.426801364315828e-07	6.850872775130876e-07	9.022019799851039e-07	5.146467917994768e-07
1.57	-0.3048474729921499	-0.01813771520467989	0.7994470548887286	1.021471326713486	-0.3043120215952123	-0.03942746377932895	-0.2938792854908843	0.6686308340931588	0.6686308340931865	-0.1726566737971286	0.164977490850774	0.1249104116608332	-0.02506606284619605	0.4517683578992393	0.1908781482232212	0.4599495152889162	-2.140577465040623	0.03522765630278035	-0.7079435607846676	0.673583117739593	-2.141239020834568	-2.141239020834482	0.002834400667737747	-0.04463456473459528	-0.5732587724149759	-0.05598154801581019	-0.1472826948316028	0.02481450037986117	-0.02464256512167122	-0.2367066382120461	0.1116419539181619	0.02636903904042867	0.1531520895264681	-1.144171582076466	-14.3297351577761	5.397946008789264	-3.271697056546393	-577.7133349253454	-52.24314605528607	-29.24530873049584	0.2326941149266816	0.4102254038574323	-0.8311237922545065	0.02831068625177662	0.6879623274664866	0.06324982805459706	1.084381928210993	0.01495264564219553	0.01495264561968087	-0.07012645181271165	-0.01438614793214633	-0.148607960535458	0.686742968001139	3.219504992691631e-07	1.696485288069319e-06	-1.775951088851901e-06	-3.035590058901593e-08	4.874737696412715e-07	9.024805867936663e-07	3.860655799768317e-07
1.58	-0.3003190491820614	-0.01620885399146635	0.8040041781280246	1.000070647034875	-0.3039248544432209	-0.04650202432557814	-0.2870902562243078	0.6472226656458641	0.6472226656460073	-0.1726311977773911	0.1645295106820019	0.1191716916880577	-0.02559098230272139	0.4538500308010056	0.1948544899580217	0.4513934418830151	-2.139239494872438	0.04219825388566117	-0.7068370689058558	0.6841001635830953	-2.140068570086946	-2.140068570087011	0.002222960781453474	-0.04497429995494941	-0.5743795006966982	-0.04901306277943165	-0.1411515726937344	0.0237793851306288	-0.02436954802225781	-0.2341565423758632	0.1131594530800138	0.02565260263334491	0.1479550665398055	-0.5070610888504888	-14.23762101081159	5.506029720986455	-3.318437885646086	-574.3505618753339	-52.54915337680345	-30.41984090210117	0.1789818946473348	0.3842962942979347	-0.8802167096370141	0.2490206714659516	0.7175779485305472	0.1653349617867619	1.023121494590418	0.2235251851265015	0.2235251851265373	-0.03231751457398111	-0.06981281994486281	-0.07077367929087024	0.7206209133775366	1.881779678653803e-07	1.967814634371401e-06	-1.093651201366745e-06	1.026248200522495e-07	3.649063168057185e-07	9.119831008580549e-07	3.082884054164034e-07
1.59	-0.2957718758022208	-0.01424140368197263	0.8084734249689538	0.9786928880273226	-0.3034681658154615	-0.05356211518507271	-0.2801996338448533	0.6258360320305929	0.6258360320306746	-0.1726123794238007	0.1640781285092949	0.1134250737789756	-0.02604645990259823	0.455511367280151	0.1985966871684791	0.4423871046513074	-2.135997993678723	0.04913281098018117	-0.705075388079863	0.6939093145147291	-2.136933106442712	-2.136933106442942	0.001534605919098455	-0.04530216861679732	-0.5748284550531237	-0.04208830594259556	-0.1350599873444638	0.02258923275861001	-0.02416188190173225	-0.231900691297287	0.1151445594513782	0.02475536128701377	0.1428398641828637	0.2538713028951642	-14.08508032341651	5.600386194822051	-3.483548403907053	-571.3641120674123	-52.78332281145558	-31.55222706498006	0.1487351998857885	0.3633773193438021	-0.9210991097892538	0.4088840132731739	0.6803118034802783	0.1977623095835173	0.9425622233928682	0.407255092999606	0.4072550929746351	-0.08773486250054281	-0.01405038876017592	-0.01458435235828751	0.6773084478291963	1.634723907988946e-07	2.041312316878139e-06	-1.001876283488675e-06	1.279250557774689e-07	3.441870815193744e-07	9.340037747696351e-07	2.994595671404082e-07
